<svg xmlns="http://www.w3.org/2000/svg" viewBox="0 0 126 125"><switch><g><path d="M108.5 57c1.4 0 2.5-1.1 2.5-2.5s-1.1-2.5-2.5-2.5-2.5 1.1-2.5 2.5 1.1 2.5 2.5 2.5zM86 39H75s-2.9 0-2.9 2.5S75 44 75 44h8v35L61.4 58 46 73s-1.4 1.4 0 3 4 0 4 0l11.5-12L83 86v12H20l18-18 13 13s2.3 2.6 4 1 0-4 0-4L38 74 17 94V44h32s3-.1 3-2.5c0-2.5-3-2.5-3-2.5H14c-1 0-2 1-2 2v60c0 1 1 2 2 2h72c1 0 2-1 2-2V41c0-1-1-2-2-2zm-23.5 5c1.4 0 2.5-1.1 2.5-2.5S63.9 39 62.5 39 60 40.1 60 41.5s1.1 2.5 2.5 2.5zm61.6 33l-10.2-18.1s-.8-1-2.9.2c-2.1 1.2-1 2.8-1 2.8s11.1 18.7 11.1 19.3c-.1.7-18 12.3-18 12.3s-.8 1.2 0 2.4 2.8.9 2.8.9 17.6-10.8 18.5-11.5c.8-.9 1.5-2.2 1.5-4 0-1.6-1.8-4.3-1.8-4.3zM28 57c0 4.4 3.6 8 8 8s8-3.6 8-8-3.6-8-8-8-8 3.6-8 8zm11.5 0c0 1.9-1.6 3.5-3.6 3.5-1.9 0-3.5-1.6-3.5-3.6s1.6-3.5 3.5-3.5 3.6 1.7 3.6 3.6zM93 27H38L76.6 5l11.5 17s1.6 1.2 2.9-.1c1.3-1.2-.2-3.5-.2-3.5S80.1 1.4 79.7.7c-1.1-.7-4-.8-5 0C74.3 1 28 27 28 27H6c-3.3 0-6 2.7-6 6v86c0 3.3 2.7 6 6 6h87c3.3 0 6-2.7 6-6V33c0-3.3-2.7-6-6-6zm1 91c0 1.1-.9 2-2 2H7c-1.1 0-2-.9-2-2V34c0-1.1.9-2 2-2h85c1.1 0 2 .9 2 2v84z" fill="#d1d4d6"/></g></switch></svg>